# xmcd
#
# Track frame offsets:
#	150
#	2992
#	25612
#	48470
#	66747
#	90952
#	116095
#	136402
#	157575
#	183850
#	201045
#	223575
#	242790
#
# Disc length: 3427 seconds
#
# Revision: 5
# Processed by: cddbd v1.5.1PL0 Copyright (c) Steve Scherf et al.
# Submitted via: audiograbber 1.82.02
#
DISCID=ab0d610d
DTITLE=Gato Barbieri - Che Corazón
DYEAR=1999
DGENRE=Latin
TTITLE0=Introduction
TTITLE1=Cristiano
TTITLE2=I Want You
TTITLE3=Seven Servants
TTITLE4=Blue Eyes
TTITLE5=Eclipse
TTITLE6=1812
TTITLE7=The Woman On The Lake
TTITLE8=Rosa
TTITLE9=Sweet Glenda
TTITLE10=Encounter
TTITLE11=Auld Lang Syne
TTITLE12=Finale
EXTD=
EXTT0=
EXTT1=
EXTT2=
EXTT3=
EXTT4=
EXTT5=
EXTT6=
EXTT7=
EXTT8=
EXTT9=
EXTT10=
EXTT11=
EXTT12=
PLAYORDER=
